<?xml version="1.0" encoding="utf-8"?>
<!-- Generator: Adobe Illustrator 15.1.0, SVG Export Plug-In . SVG Version: 6.00 Build 0)  -->
<!DOCTYPE svg PUBLIC "-//W3C//DTD SVG 1.1//EN" "http://www.w3.org/Graphics/SVG/1.1/DTD/svg11.dtd">
<svg version="1.1" id="Layer_1" xmlns="http://www.w3.org/2000/svg" xmlns:xlink="http://www.w3.org/1999/xlink" x="0px" y="0px"
	 preserveAspectRatio="xMinYMin meet" viewBox="0 0 921.984 182" enable-background="new 0 0 921.984 182" xml:space="preserve">
<g>
	<linearGradient id="SVGID_1_" gradientUnits="userSpaceOnUse" x1="116.5918" y1="64.7998" x2="116.5918" y2="7.2002">
		<stop  offset="0" style="stop-color:#E6E7E8"/>
		<stop  offset="1" style="stop-color:#FFFFFF"/>
	</linearGradient>
	<polygon fill-rule="evenodd" clip-rule="evenodd" fill="url(#SVGID_1_)" points="0,7.2 197.184,7.2 233.184,36 197.184,64.8 
		0,64.8 0,36 	"/>
	<linearGradient id="SVGID_2_" gradientUnits="userSpaceOnUse" x1="342.1919" y1="64.7998" x2="342.1919" y2="7.2002">
		<stop  offset="0" style="stop-color:#E6E7E8"/>
		<stop  offset="1" style="stop-color:#FFFFFF"/>
	</linearGradient>
	<polygon fill-rule="evenodd" clip-rule="evenodd" fill="url(#SVGID_2_)" points="225.6,7.2 422.784,7.2 458.784,36 422.784,64.8 
		225.6,64.8 261.6,36 	"/>
	<linearGradient id="SVGID_3_" gradientUnits="userSpaceOnUse" x1="567.792" y1="64.7998" x2="567.792" y2="7.2002">
		<stop  offset="0" style="stop-color:#E6E7E8"/>
		<stop  offset="1" style="stop-color:#FFFFFF"/>
	</linearGradient>
	<polygon fill-rule="evenodd" clip-rule="evenodd" fill="url(#SVGID_3_)" points="451.2,7.2 648.385,7.2 684.385,36 648.385,64.8 
		451.2,64.8 487.2,36 	"/>
	<linearGradient id="SVGID_4_" gradientUnits="userSpaceOnUse" x1="799.3926" y1="64.7998" x2="799.3926" y2="7.2002">
		<stop  offset="0" style="stop-color:#E6E7E8"/>
		<stop  offset="1" style="stop-color:#FFFFFF"/>
	</linearGradient>
	<polygon fill-rule="evenodd" clip-rule="evenodd" fill="url(#SVGID_4_)" points="676.8,7.2 921.984,7.2 921.984,36 921.984,64.8 
		676.8,64.8 712.8,36 	"/>
</g>
<g>
	<rect x="55.942" y="18.97" fill-rule="evenodd" clip-rule="evenodd" fill="none" width="102.84" height="50.82"/>
	<path fill="#676767" d="M68.659,45.572V28.767h4.418c2.875,0,5.046,0.689,6.516,2.068c1.469,1.379,2.203,3.416,2.203,6.111
		c0,1.297-0.205,2.477-0.615,3.539s-1.002,1.971-1.775,2.725s-1.711,1.336-2.813,1.746s-2.344,0.615-3.727,0.615H68.659z
		 M70.217,30.197v13.957h2.578c1.156,0,2.189-0.156,3.1-0.469c0.91-0.313,1.682-0.771,2.314-1.377s1.115-1.354,1.447-2.244
		c0.332-0.891,0.498-1.914,0.498-3.07c0-4.531-2.395-6.797-7.184-6.797H70.217z"/>
	<path fill="#676767" d="M85.398,45.572V28.767h8.191v1.43h-6.633v6.164h6.141v1.406h-6.141v6.387h7.008v1.418H85.398z"/>
	<path fill="#676767" d="M97.053,43.111c0.281,0.211,0.592,0.4,0.932,0.568s0.688,0.309,1.043,0.422s0.713,0.199,1.072,0.258
		s0.703,0.088,1.031,0.088c1.273,0,2.227-0.246,2.859-0.738s0.949-1.199,0.949-2.121c0-0.445-0.074-0.834-0.223-1.166
		s-0.379-0.643-0.691-0.932s-0.707-0.576-1.184-0.861s-1.039-0.607-1.688-0.967c-0.719-0.391-1.334-0.76-1.846-1.107
		s-0.93-0.703-1.254-1.066s-0.563-0.756-0.715-1.178s-0.229-0.902-0.229-1.441c0-0.68,0.145-1.289,0.434-1.828
		s0.68-0.998,1.172-1.377s1.068-0.67,1.729-0.873s1.365-0.305,2.115-0.305c1.32,0,2.426,0.184,3.316,0.551v1.723
		c-0.992-0.57-2.156-0.855-3.492-0.855c-0.5,0-0.971,0.061-1.412,0.182s-0.828,0.299-1.16,0.533s-0.594,0.525-0.785,0.873
		s-0.287,0.752-0.287,1.213c0,0.438,0.064,0.814,0.193,1.131s0.336,0.615,0.621,0.896s0.66,0.561,1.125,0.838
		s1.033,0.596,1.705,0.955c0.703,0.375,1.316,0.74,1.84,1.096s0.959,0.727,1.307,1.113s0.607,0.797,0.779,1.23
		s0.258,0.916,0.258,1.447c0,0.734-0.137,1.381-0.41,1.939s-0.656,1.021-1.148,1.389s-1.078,0.645-1.758,0.832
		s-1.426,0.281-2.238,0.281c-0.266,0-0.582-0.021-0.949-0.064s-0.738-0.105-1.113-0.188s-0.732-0.18-1.072-0.293
		s-0.615-0.236-0.826-0.369V43.111z"/>
	<path fill="#676767" d="M111.847,45.572h-1.559V28.767h1.559V45.572z"/>
	<path fill="#676767" d="M128.81,44.412c-1.727,0.969-3.555,1.453-5.484,1.453c-1.219,0-2.313-0.209-3.281-0.627
		s-1.793-1-2.473-1.746s-1.201-1.637-1.564-2.672s-0.545-2.174-0.545-3.416c0-0.82,0.088-1.609,0.264-2.367s0.434-1.469,0.773-2.133
		s0.756-1.266,1.248-1.805s1.057-1.004,1.693-1.395s1.338-0.691,2.104-0.902s1.59-0.316,2.473-0.316
		c1.664,0,3.148,0.297,4.453,0.891v1.723c-1.438-0.797-2.984-1.195-4.641-1.195c-1.023,0-1.949,0.188-2.777,0.563
		s-1.533,0.891-2.115,1.547s-1.033,1.432-1.354,2.326s-0.484,1.865-0.492,2.912c-0.008,1.039,0.127,1.998,0.404,2.877
		s0.689,1.639,1.236,2.279s1.223,1.141,2.027,1.5s1.734,0.539,2.789,0.539c1.422,0,2.656-0.297,3.703-0.891v-5.121h-3.82v-1.418
		h5.379V44.412z"/>
	<path fill="#676767" d="M144.448,45.572l-9.328-13.488c-0.117-0.172-0.232-0.348-0.346-0.527s-0.205-0.355-0.275-0.527h-0.059
		c0.016,0.141,0.029,0.336,0.041,0.586s0.018,0.563,0.018,0.938v13.02h-1.559V28.767h1.723l9.176,13.324
		c0.141,0.211,0.268,0.408,0.381,0.592s0.217,0.354,0.311,0.51h0.059c-0.031-0.258-0.055-0.547-0.07-0.867s-0.023-0.676-0.023-1.066
		V28.767h1.57v16.805H144.448z"/>
</g>
<g>
	<rect x="300.807" y="18.97" fill-rule="evenodd" clip-rule="evenodd" fill="none" width="82.77" height="50.82"/>
	<path fill="#676767" d="M312.391,45.572V28.767h4.594c0.695,0,1.322,0.094,1.881,0.281s1.035,0.451,1.43,0.791
		s0.697,0.748,0.908,1.225s0.316,1,0.316,1.57c0,0.484-0.066,0.938-0.199,1.359s-0.324,0.807-0.574,1.154s-0.557,0.648-0.92,0.902
		s-0.775,0.455-1.236,0.604v0.047c0.563,0.055,1.074,0.191,1.535,0.41s0.855,0.504,1.184,0.855s0.582,0.764,0.762,1.236
		s0.27,0.99,0.27,1.553c0,0.711-0.129,1.361-0.387,1.951s-0.619,1.098-1.084,1.523s-1.018,0.756-1.658,0.99
		s-1.348,0.352-2.121,0.352H312.391z M313.95,30.197v5.965h2.18c0.57,0,1.086-0.074,1.547-0.223s0.855-0.363,1.184-0.645
		s0.58-0.621,0.756-1.02s0.264-0.848,0.264-1.348c0-1.82-1.133-2.73-3.398-2.73H313.95z M313.95,37.568v6.586h2.895
		c1.242,0,2.197-0.291,2.865-0.873s1.002-1.408,1.002-2.479c0-2.156-1.465-3.234-4.395-3.234H313.95z"/>
	<path fill="#676767" d="M337.909,38.822c0,4.695-2.063,7.043-6.188,7.043c-3.93,0-5.895-2.262-5.895-6.785V28.767h1.559v10.172
		c0,1.844,0.371,3.223,1.113,4.137s1.891,1.371,3.445,1.371c2.938,0,4.406-1.781,4.406-5.344V28.767h1.559V38.822z"/>
	<path fill="#676767" d="M343.855,45.572h-1.559V28.767h1.559V45.572z"/>
	<path fill="#676767" d="M348.467,45.572V28.767h1.559v15.387h6.75v1.418H348.467z"/>
	<path fill="#676767" d="M359.852,45.572V28.767h4.418c2.875,0,5.046,0.689,6.516,2.068c1.468,1.379,2.203,3.416,2.203,6.111
		c0,1.297-0.205,2.477-0.615,3.539s-1.002,1.971-1.775,2.725s-1.711,1.336-2.813,1.746s-2.344,0.615-3.727,0.615H359.852z
		 M361.41,30.197v13.957h2.578c1.156,0,2.189-0.156,3.1-0.469c0.91-0.313,1.682-0.771,2.314-1.377s1.115-1.354,1.447-2.244
		c0.332-0.891,0.498-1.914,0.498-3.07c0-4.531-2.395-6.797-7.184-6.797H361.41z"/>
</g>
<g>
	<rect x="528.917" y="18.97" fill-rule="evenodd" clip-rule="evenodd" fill="none" width="77.75" height="50.82"/>
	<path fill="#676767" d="M550.545,45.572v-7.863h-9.164v7.863h-1.559V28.767h1.559v7.535h9.164v-7.535h1.559v16.805H550.545z"/>
	<path fill="#676767" d="M563.547,45.865c-1.211,0-2.301-0.221-3.27-0.662s-1.791-1.045-2.467-1.811s-1.195-1.666-1.559-2.701
		s-0.545-2.146-0.545-3.334c0-1.313,0.182-2.514,0.545-3.604s0.893-2.023,1.588-2.801s1.547-1.383,2.555-1.816
		s2.156-0.65,3.445-0.65c1.188,0,2.254,0.213,3.199,0.639s1.75,1.016,2.414,1.77s1.174,1.646,1.529,2.678s0.533,2.152,0.533,3.363
		c0,1.273-0.174,2.455-0.521,3.545s-0.859,2.033-1.535,2.83s-1.508,1.422-2.496,1.875S564.836,45.865,563.547,45.865z
		 M563.676,29.904c-1.016,0-1.916,0.193-2.701,0.58s-1.447,0.91-1.986,1.57s-0.947,1.434-1.225,2.32s-0.42,1.83-0.428,2.83
		c-0.008,0.953,0.115,1.865,0.369,2.736s0.637,1.641,1.148,2.309s1.158,1.201,1.939,1.6s1.695,0.598,2.742,0.598
		s1.967-0.182,2.76-0.545s1.455-0.867,1.986-1.512s0.932-1.412,1.201-2.303s0.404-1.863,0.404-2.918
		c0-0.984-0.119-1.918-0.357-2.801s-0.609-1.654-1.113-2.314s-1.146-1.184-1.928-1.57S564.77,29.904,563.676,29.904z"/>
	<path fill="#676767" d="M574.463,43.111c0.281,0.211,0.592,0.4,0.932,0.568s0.688,0.309,1.043,0.422s0.713,0.199,1.072,0.258
		s0.703,0.088,1.031,0.088c1.273,0,2.227-0.246,2.859-0.738s0.949-1.199,0.949-2.121c0-0.445-0.074-0.834-0.223-1.166
		s-0.379-0.643-0.691-0.932s-0.707-0.576-1.184-0.861s-1.039-0.607-1.688-0.967c-0.719-0.391-1.334-0.76-1.846-1.107
		s-0.93-0.703-1.254-1.066s-0.563-0.756-0.715-1.178s-0.229-0.902-0.229-1.441c0-0.68,0.145-1.289,0.434-1.828
		s0.68-0.998,1.172-1.377s1.068-0.67,1.729-0.873s1.365-0.305,2.115-0.305c1.32,0,2.426,0.184,3.316,0.551v1.723
		c-0.992-0.57-2.156-0.855-3.492-0.855c-0.5,0-0.971,0.061-1.412,0.182s-0.828,0.299-1.16,0.533s-0.594,0.525-0.785,0.873
		s-0.287,0.752-0.287,1.213c0,0.438,0.064,0.814,0.193,1.131s0.336,0.615,0.621,0.896s0.66,0.561,1.125,0.838
		s1.033,0.596,1.705,0.955c0.703,0.375,1.316,0.74,1.84,1.096s0.959,0.727,1.307,1.113s0.607,0.797,0.779,1.23
		s0.258,0.916,0.258,1.447c0,0.734-0.137,1.381-0.41,1.939s-0.656,1.021-1.148,1.389s-1.078,0.645-1.758,0.832
		s-1.426,0.281-2.238,0.281c-0.266,0-0.582-0.021-0.949-0.064s-0.738-0.105-1.113-0.188s-0.732-0.18-1.072-0.293
		s-0.615-0.236-0.826-0.369V43.111z"/>
	<path fill="#676767" d="M592.504,30.197v15.375h-1.559V30.197h-4.84v-1.43h11.25v1.43H592.504z"/>
</g>
<g>
	<rect x="745.832" y="18.97" fill-rule="evenodd" clip-rule="evenodd" fill="none" width="137.95" height="50.82"/>
	<path fill="#676767" d="M776.643,45.572V33.97c0-0.594,0.047-1.551,0.141-2.871h-0.047c-0.109,0.352-0.209,0.656-0.299,0.914
		s-0.174,0.469-0.252,0.633l-5.859,12.926h-0.668l-5.871-12.844c-0.172-0.391-0.348-0.941-0.527-1.652h-0.047
		c0.031,0.359,0.053,0.77,0.064,1.23s0.018,0.973,0.018,1.535v11.73h-1.523V28.767h1.84l5.707,12.633
		c0.117,0.266,0.232,0.537,0.346,0.814s0.217,0.572,0.311,0.885h0.07c0.109-0.313,0.209-0.598,0.299-0.855s0.201-0.535,0.334-0.832
		l5.754-12.645h1.746v16.805H776.643z"/>
	<path fill="#676767" d="M793.664,45.572l-1.852-4.969h-7.207l-1.805,4.969h-1.734l6.398-16.805h1.57l6.363,16.805H793.664z
		 M788.543,31.708c-0.055-0.148-0.111-0.32-0.17-0.516s-0.107-0.418-0.146-0.668h-0.047c-0.047,0.25-0.1,0.473-0.158,0.668
		s-0.115,0.367-0.17,0.516l-2.719,7.477h6.152L788.543,31.708z"/>
	<path fill="#676767" d="M799.846,45.572h-1.559V28.767h1.559V45.572z"/>
	<path fill="#676767" d="M815.965,45.572l-9.328-13.488c-0.117-0.172-0.232-0.348-0.346-0.527s-0.205-0.355-0.275-0.527h-0.059
		c0.016,0.141,0.029,0.336,0.041,0.586s0.018,0.563,0.018,0.938v13.02h-1.559V28.767h1.723l9.176,13.324
		c0.141,0.211,0.268,0.408,0.381,0.592s0.217,0.354,0.311,0.51h0.059c-0.031-0.258-0.055-0.547-0.07-0.867s-0.023-0.676-0.023-1.066
		V28.767h1.57v16.805H815.965z"/>
	<path fill="#676767" d="M826.985,30.197v15.375h-1.559V30.197h-4.84v-1.43h11.25v1.43H826.985z"/>
	<path fill="#676767" d="M843.925,45.572l-1.852-4.969h-7.207l-1.805,4.969h-1.734l6.398-16.805h1.57l6.363,16.805H843.925z
		 M838.804,31.708c-0.055-0.148-0.111-0.32-0.17-0.516s-0.107-0.418-0.146-0.668h-0.047c-0.047,0.25-0.1,0.473-0.158,0.668
		s-0.115,0.367-0.17,0.516l-2.719,7.477h6.152L838.804,31.708z"/>
	<path fill="#676767" d="M850.106,45.572h-1.559V28.767h1.559V45.572z"/>
	<path fill="#676767" d="M866.226,45.572l-9.328-13.488c-0.117-0.172-0.232-0.348-0.346-0.527s-0.205-0.355-0.275-0.527h-0.059
		c0.016,0.141,0.029,0.336,0.041,0.586s0.018,0.563,0.018,0.938v13.02h-1.559V28.767h1.723l9.176,13.324
		c0.141,0.211,0.268,0.408,0.381,0.592s0.217,0.354,0.311,0.51h0.059c-0.031-0.258-0.055-0.547-0.07-0.867s-0.023-0.676-0.023-1.066
		V28.767h1.57v16.805H866.226z"/>
</g>
<g>
	<rect x="2.43" y="112.494" fill="none" width="122.57" height="88.81"/>
	<path fill="#989898" d="M28.296,151.288H12.374v14.824h17.813v4.453H7.005v-41.116h22.267v4.453H12.374v12.994h15.922V151.288z"/>
	<path fill="#989898" d="M36.895,127.253h5.368v43.313h-5.368V127.253z"/>
	<path fill="#989898" d="M57.269,132.743c0,1.83-1.281,3.294-3.417,3.294c-1.952,0-3.233-1.464-3.233-3.294s1.342-3.355,3.355-3.355
		C55.927,129.388,57.269,130.852,57.269,132.743z M51.291,170.565V141.04h5.368v29.525H51.291z"/>
	<path fill="#989898" d="M68.065,141.04l4.209,6.344c1.159,1.647,2.074,3.111,3.05,4.759h0.122c0.976-1.708,1.952-3.233,2.989-4.819
		l4.087-6.283h5.856l-10.066,14.274l10.31,15.251h-6.039l-4.393-6.649c-1.159-1.708-2.135-3.354-3.172-5.124h-0.122
		c-0.976,1.77-1.952,3.355-3.111,5.124l-4.271,6.649h-5.917l10.493-15.067L62.087,141.04H68.065z"/>
</g>
<path fill-rule="evenodd" clip-rule="evenodd" fill="#989898" d="M0,121.395c0,0,11.78-31.111,59.88-25.131
	c48.1,5.99,47.12,53.84,47.12,53.84s-14.82-42.08-46.18-44.27C17.02,102.783,0,121.395,0,121.395z"/>
<g>
	<path fill="#676767" d="M138.826,170v-25.207h11.777v1.6h-10.037V156.5h9.316v1.582h-9.316v10.336h10.617V170H138.826z"/>
	<path fill="#676767" d="M172.284,170l-5.801-9.615c-0.363-0.598-0.674-1.184-0.932-1.758h-0.088
		c-0.316,0.645-0.65,1.23-1.002,1.758L158.556,170h-2.092l7.963-12.709l-7.488-12.498h2.092l5.643,9.475
		c0.293,0.492,0.598,1.055,0.914,1.688h0.07l0.932-1.688l5.607-9.475h2.021l-7.559,12.463L174.394,170H172.284z"/>
	<path fill="#676767" d="M182.434,159.893V170h-1.74v-25.207h6.082c2.59,0,4.57,0.601,5.941,1.802s2.057,2.956,2.057,5.265
		c0,2.344-0.765,4.269-2.294,5.774s-3.671,2.259-6.425,2.259H182.434z M182.434,146.393v11.9h3.586c2.273,0,4.002-0.542,5.186-1.626
		s1.775-2.616,1.775-4.597c0-3.785-2.174-5.678-6.521-5.678H182.434z"/>
	<path fill="#676767" d="M202.076,170v-25.207h11.777v1.6h-10.037V156.5h9.316v1.582h-9.316v10.336h10.617V170H202.076z"/>
	<path fill="#676767" d="M238.628,169.174c-2.039,0.844-4.166,1.266-6.381,1.266c-3.445,0-6.255-1.157-8.429-3.472
		s-3.261-5.335-3.261-9.062c0-4.09,1.178-7.368,3.533-9.835s5.35-3.7,8.982-3.7c1.934,0,3.785,0.311,5.555,0.932v1.846
		c-1.77-0.797-3.633-1.195-5.59-1.195c-3.164,0-5.736,1.072-7.717,3.217s-2.971,4.998-2.971,8.561c0,3.434,0.946,6.144,2.839,8.13
		s4.292,2.979,7.198,2.979c2.32,0,4.4-0.451,6.24-1.354V169.174z"/>
	<path fill="#676767" d="M252.873,146.393V170h-1.723v-23.607h-7.277v-1.6h16.277v1.6H252.873z"/>
	<path fill="#676767" d="M278.562,170l-2.883-7.84h-10.934l-2.883,7.84h-1.916l9.51-25.207h1.652L280.513,170H278.562z
		 M270.827,148.906c-0.129-0.352-0.234-0.697-0.316-1.037c-0.082-0.293-0.17-0.586-0.264-0.879h-0.07
		c-0.199,0.773-0.393,1.4-0.58,1.881l-4.236,11.689h9.721L270.827,148.906z"/>
	<path fill="#676767" d="M289.502,146.393V170h-1.723v-23.607h-7.277v-1.6h16.277v1.6H289.502z"/>
	<path fill="#676767" d="M302.869,170v-25.207h1.74V170H302.869z"/>
	<path fill="#676767" d="M323.249,170.439c-3.563,0-6.401-1.184-8.517-3.551s-3.173-5.443-3.173-9.229
		c0-4.02,1.087-7.239,3.261-9.659s5.142-3.63,8.903-3.63c3.398,0,6.149,1.163,8.253,3.489s3.155,5.376,3.155,9.149
		c0,4.172-1.078,7.453-3.234,9.844S326.858,170.439,323.249,170.439z M323.425,145.953c-2.93,0-5.341,1.061-7.233,3.182
		s-2.839,4.898-2.839,8.332c0,3.469,0.896,6.231,2.689,8.288s4.184,3.085,7.172,3.085c3.117,0,5.584-1.017,7.4-3.05
		s2.725-4.866,2.725-8.499c0-3.563-0.888-6.343-2.663-8.341S326.483,145.953,323.425,145.953z"/>
	<path fill="#676767" d="M359.906,170l-15.012-20.373c-0.305-0.41-0.574-0.82-0.809-1.23l-0.229-0.352h-0.07
		c0.023,0.305,0.035,0.674,0.035,1.107V170h-1.74v-25.207h1.336l14.906,20.197c0.328,0.445,0.686,0.984,1.072,1.617h0.088
		c-0.059-0.82-0.088-1.523-0.088-2.109v-19.705h1.74V170H359.906z"/>
	<path fill="#676767" d="M368.614,169.104v-1.986c1.805,1.148,3.633,1.723,5.484,1.723c1.969,0,3.463-0.407,4.482-1.222
		s1.529-1.954,1.529-3.419c0-1.289-0.343-2.317-1.028-3.085s-2.171-1.813-4.456-3.138c-2.555-1.488-4.172-2.733-4.852-3.735
		s-1.02-2.159-1.02-3.472c0-1.781,0.691-3.293,2.074-4.535s3.229-1.863,5.537-1.863c1.5,0,3,0.252,4.5,0.756v1.828
		c-1.477-0.668-3.053-1.002-4.729-1.002c-1.711,0-3.067,0.434-4.069,1.301s-1.503,1.969-1.503,3.305
		c0,1.289,0.343,2.314,1.028,3.076s2.165,1.799,4.438,3.111c2.355,1.336,3.923,2.522,4.702,3.56s1.169,2.229,1.169,3.577
		c0,1.934-0.671,3.51-2.013,4.729s-3.237,1.828-5.687,1.828c-0.867,0-1.866-0.135-2.997-0.404S369.212,169.455,368.614,169.104z"/>
	<path fill="#676767" d="M400.762,170v-25.207h11.777v1.6h-10.037V156.5h9.316v1.582h-9.316v10.336h10.617V170H400.762z"/>
	<path fill="#676767" d="M434.22,170l-5.801-9.615c-0.363-0.598-0.674-1.184-0.932-1.758h-0.088c-0.316,0.645-0.65,1.23-1.002,1.758
		L420.491,170h-2.092l7.963-12.709l-7.488-12.498h2.092l5.643,9.475c0.293,0.492,0.598,1.055,0.914,1.688h0.07l0.932-1.688
		l5.607-9.475h2.021l-7.559,12.463L436.329,170H434.22z"/>
	<path fill="#676767" d="M458.766,169.174c-2.039,0.844-4.166,1.266-6.381,1.266c-3.445,0-6.255-1.157-8.429-3.472
		s-3.261-5.335-3.261-9.062c0-4.09,1.178-7.368,3.533-9.835s5.35-3.7,8.982-3.7c1.934,0,3.785,0.311,5.555,0.932v1.846
		c-1.77-0.797-3.633-1.195-5.59-1.195c-3.164,0-5.736,1.072-7.717,3.217s-2.971,4.998-2.971,8.561c0,3.434,0.946,6.144,2.839,8.13
		s4.292,2.979,7.198,2.979c2.32,0,4.4-0.451,6.24-1.354V169.174z"/>
	<path fill="#676767" d="M466.173,170v-25.207h11.777v1.6h-10.037V156.5h9.316v1.582h-9.316v10.336h10.617V170H466.173z"/>
	<path fill="#676767" d="M485.973,170v-25.207h11.777v1.6h-10.037V156.5h9.316v1.582h-9.316v10.336h10.617V170H485.973z"/>
	<path fill="#676767" d="M505.773,170v-25.207h6.311c4.184,0,7.365,1.043,9.545,3.129s3.27,5.127,3.27,9.123
		c0,3.844-1.169,6.964-3.507,9.36S515.828,170,511.715,170H505.773z M507.514,146.393v22.025h3.955c3.738,0,6.609-0.97,8.613-2.909
		s3.006-4.737,3.006-8.394c0-7.148-3.756-10.723-11.268-10.723H507.514z"/>
	<path fill="#676767" d="M531.831,170v-25.207h11.777v1.6h-10.037V156.5h9.316v1.582h-9.316v10.336h10.617V170H531.831z"/>
	<path fill="#676767" d="M551.631,170v-25.207h6.311c4.184,0,7.365,1.043,9.545,3.129s3.27,5.127,3.27,9.123
		c0,3.844-1.169,6.964-3.507,9.36S561.686,170,557.572,170H551.631z M553.371,146.393v22.025h3.955c3.738,0,6.609-0.97,8.613-2.909
		s3.006-4.737,3.006-8.394c0-7.148-3.756-10.723-11.268-10.723H553.371z"/>
</g>
</svg>
